<?xml version="1.0" encoding="UTF-8"?>
<!DOCTYPE svg PUBLIC "-//W3C//DTD SVG 1.1//EN" "http://www.w3.org/Graphics/SVG/1.1/DTD/svg11.dtd">
<svg xmlns="http://www.w3.org/2000/svg" version="1.1" width="50px" height="50px" style="shape-rendering:geometricPrecision; text-rendering:geometricPrecision; image-rendering:optimizeQuality; fill-rule:evenodd; clip-rule:evenodd" xmlns:xlink="http://www.w3.org/1999/xlink">
<g><path style="opacity:0.999" fill="#ffffff" d="M 2.5,3.5 C 17.1667,3.5 31.8333,3.5 46.5,3.5C 46.5,17.5 46.5,31.5 46.5,45.5C 31.8333,45.5 17.1667,45.5 2.5,45.5C 2.5,31.5 2.5,17.5 2.5,3.5 Z M 4.5,5.5 C 8.5,5.5 12.5,5.5 16.5,5.5C 16.5,8.16667 16.5,10.8333 16.5,13.5C 12.5,13.5 8.5,13.5 4.5,13.5C 4.5,10.8333 4.5,8.16667 4.5,5.5 Z M 18.5,5.5 C 22.5,5.5 26.5,5.5 30.5,5.5C 30.5,8.16667 30.5,10.8333 30.5,13.5C 26.5,13.5 22.5,13.5 18.5,13.5C 18.5,10.8333 18.5,8.16667 18.5,5.5 Z M 32.5,5.5 C 36.5,5.5 40.5,5.5 44.5,5.5C 44.5,8.16667 44.5,10.8333 44.5,13.5C 40.5,13.5 36.5,13.5 32.5,13.5C 32.5,10.8333 32.5,8.16667 32.5,5.5 Z M 4.5,15.5 C 6.16667,15.5 7.83333,15.5 9.5,15.5C 9.5,18.1667 9.5,20.8333 9.5,23.5C 7.83333,23.5 6.16667,23.5 4.5,23.5C 4.5,20.8333 4.5,18.1667 4.5,15.5 Z M 11.5,15.5 C 15.5,15.5 19.5,15.5 23.5,15.5C 23.5,18.1667 23.5,20.8333 23.5,23.5C 19.5,23.5 15.5,23.5 11.5,23.5C 11.5,20.8333 11.5,18.1667 11.5,15.5 Z M 25.5,15.5 C 29.5,15.5 33.5,15.5 37.5,15.5C 37.5,18.1667 37.5,20.8333 37.5,23.5C 33.5,23.5 29.5,23.5 25.5,23.5C 25.5,20.8333 25.5,18.1667 25.5,15.5 Z M 39.5,15.5 C 41.1667,15.5 42.8333,15.5 44.5,15.5C 44.5,18.1667 44.5,20.8333 44.5,23.5C 42.8333,23.5 41.1667,23.5 39.5,23.5C 39.5,20.8333 39.5,18.1667 39.5,15.5 Z M 4.5,25.5 C 8.5,25.5 12.5,25.5 16.5,25.5C 16.5,28.1667 16.5,30.8333 16.5,33.5C 12.5,33.5 8.5,33.5 4.5,33.5C 4.5,30.8333 4.5,28.1667 4.5,25.5 Z M 18.5,25.5 C 22.5,25.5 26.5,25.5 30.5,25.5C 30.5,28.1667 30.5,30.8333 30.5,33.5C 26.5,33.5 22.5,33.5 18.5,33.5C 18.5,30.8333 18.5,28.1667 18.5,25.5 Z M 32.5,25.5 C 36.5,25.5 40.5,25.5 44.5,25.5C 44.5,28.1667 44.5,30.8333 44.5,33.5C 40.5,33.5 36.5,33.5 32.5,33.5C 32.5,30.8333 32.5,28.1667 32.5,25.5 Z M 4.5,35.5 C 6.16667,35.5 7.83333,35.5 9.5,35.5C 9.5,38.1667 9.5,40.8333 9.5,43.5C 7.83333,43.5 6.16667,43.5 4.5,43.5C 4.5,40.8333 4.5,38.1667 4.5,35.5 Z M 11.5,35.5 C 15.5,35.5 19.5,35.5 23.5,35.5C 23.5,38.1667 23.5,40.8333 23.5,43.5C 19.5,43.5 15.5,43.5 11.5,43.5C 11.5,40.8333 11.5,38.1667 11.5,35.5 Z M 25.5,35.5 C 29.5,35.5 33.5,35.5 37.5,35.5C 37.5,38.1667 37.5,40.8333 37.5,43.5C 33.5,43.5 29.5,43.5 25.5,43.5C 25.5,40.8333 25.5,38.1667 25.5,35.5 Z M 39.5,35.5 C 41.1667,35.5 42.8333,35.5 44.5,35.5C 44.5,38.1667 44.5,40.8333 44.5,43.5C 42.8333,43.5 41.1667,43.5 39.5,43.5C 39.5,40.8333 39.5,38.1667 39.5,35.5 Z"/></g>
</svg>
